<svg xmlns="http://www.w3.org/2000/svg" viewBox="0 0 1024 1024">
<defs>
  <linearGradient id="bg" x1="0" y1="0" x2="0" y2="1">
    <stop offset="0" stop-color="#2C2B27"/>
    <stop offset="1" stop-color="#161513"/>
  </linearGradient>
  <linearGradient id="amber" x1="0" y1="0" x2="0" y2="1">
    <stop offset="0" stop-color="#FFC24A"/>
    <stop offset="1" stop-color="#E2900A"/>
  </linearGradient>
  <linearGradient id="amberH" x1="0" y1="0" x2="1" y2="1">
    <stop offset="0" stop-color="#FFC24A"/>
    <stop offset="1" stop-color="#F7A81E"/>
  </linearGradient>
</defs>
<path d="M 922.00,512.00 L 921.94,607.49 L 921.78,637.98 L 921.49,660.13 L 921.10,678.14 L 920.59,693.58 L 919.97,707.22 L 919.24,719.51 L 918.39,730.74 L 917.43,741.12 L 916.35,750.77 L 915.16,759.81 L 913.85,768.32 L 912.43,776.35 L 910.88,783.97 L 909.22,791.20 L 907.44,798.09 L 905.53,804.67 L 903.50,810.95 L 901.35,816.96 L 899.08,822.72 L 896.67,828.24 L 894.14,833.53 L 891.47,838.61 L 888.68,843.49 L 885.74,848.17 L 882.67,852.67 L 879.45,856.99 L 876.09,861.13 L 872.59,865.11 L 868.93,868.93 L 865.11,872.59 L 861.13,876.09 L 856.99,879.45 L 852.67,882.67 L 848.17,885.74 L 843.49,888.68 L 838.61,891.47 L 833.53,894.14 L 828.24,896.67 L 822.72,899.08 L 816.96,901.35 L 810.95,903.50 L 804.67,905.53 L 798.09,907.44 L 791.20,909.22 L 783.97,910.88 L 776.35,912.43 L 768.32,913.85 L 759.81,915.16 L 750.77,916.35 L 741.12,917.43 L 730.74,918.39 L 719.51,919.24 L 707.22,919.97 L 693.58,920.59 L 678.14,921.10 L 660.13,921.49 L 637.98,921.78 L 607.49,921.94 L 512.00,922.00 L 416.51,921.94 L 386.02,921.78 L 363.87,921.49 L 345.86,921.10 L 330.42,920.59 L 316.78,919.97 L 304.49,919.24 L 293.26,918.39 L 282.88,917.43 L 273.23,916.35 L 264.19,915.16 L 255.68,913.85 L 247.65,912.43 L 240.03,910.88 L 232.80,909.22 L 225.91,907.44 L 219.33,905.53 L 213.05,903.50 L 207.04,901.35 L 201.28,899.08 L 195.76,896.67 L 190.47,894.14 L 185.39,891.47 L 180.51,888.68 L 175.83,885.74 L 171.33,882.67 L 167.01,879.45 L 162.87,876.09 L 158.89,872.59 L 155.07,868.93 L 151.41,865.11 L 147.91,861.13 L 144.55,856.99 L 141.33,852.67 L 138.26,848.17 L 135.32,843.49 L 132.53,838.61 L 129.86,833.53 L 127.33,828.24 L 124.92,822.72 L 122.65,816.96 L 120.50,810.95 L 118.47,804.67 L 116.56,798.09 L 114.78,791.20 L 113.12,783.97 L 111.57,776.35 L 110.15,768.32 L 108.84,759.81 L 107.65,750.77 L 106.57,741.12 L 105.61,730.74 L 104.76,719.51 L 104.03,707.22 L 103.41,693.58 L 102.90,678.14 L 102.51,660.13 L 102.22,637.98 L 102.06,607.49 L 102.00,512.00 L 102.06,416.51 L 102.22,386.02 L 102.51,363.87 L 102.90,345.86 L 103.41,330.42 L 104.03,316.78 L 104.76,304.49 L 105.61,293.26 L 106.57,282.88 L 107.65,273.23 L 108.84,264.19 L 110.15,255.68 L 111.57,247.65 L 113.12,240.03 L 114.78,232.80 L 116.56,225.91 L 118.47,219.33 L 120.50,213.05 L 122.65,207.04 L 124.92,201.28 L 127.33,195.76 L 129.86,190.47 L 132.53,185.39 L 135.32,180.51 L 138.26,175.83 L 141.33,171.33 L 144.55,167.01 L 147.91,162.87 L 151.41,158.89 L 155.07,155.07 L 158.89,151.41 L 162.87,147.91 L 167.01,144.55 L 171.33,141.33 L 175.83,138.26 L 180.51,135.32 L 185.39,132.53 L 190.47,129.86 L 195.76,127.33 L 201.28,124.92 L 207.04,122.65 L 213.05,120.50 L 219.33,118.47 L 225.91,116.56 L 232.80,114.78 L 240.03,113.12 L 247.65,111.57 L 255.68,110.15 L 264.19,108.84 L 273.23,107.65 L 282.88,106.57 L 293.26,105.61 L 304.49,104.76 L 316.78,104.03 L 330.42,103.41 L 345.86,102.90 L 363.87,102.51 L 386.02,102.22 L 416.51,102.06 L 512.00,102.00 L 607.49,102.06 L 637.98,102.22 L 660.13,102.51 L 678.14,102.90 L 693.58,103.41 L 707.22,104.03 L 719.51,104.76 L 730.74,105.61 L 741.12,106.57 L 750.77,107.65 L 759.81,108.84 L 768.32,110.15 L 776.35,111.57 L 783.97,113.12 L 791.20,114.78 L 798.09,116.56 L 804.67,118.47 L 810.95,120.50 L 816.96,122.65 L 822.72,124.92 L 828.24,127.33 L 833.53,129.86 L 838.61,132.53 L 843.49,135.32 L 848.17,138.26 L 852.67,141.33 L 856.99,144.55 L 861.13,147.91 L 865.11,151.41 L 868.93,155.07 L 872.59,158.89 L 876.09,162.87 L 879.45,167.01 L 882.67,171.33 L 885.74,175.83 L 888.68,180.51 L 891.47,185.39 L 894.14,190.47 L 896.67,195.76 L 899.08,201.28 L 901.35,207.04 L 903.50,213.05 L 905.53,219.33 L 907.44,225.91 L 909.22,232.80 L 910.88,240.03 L 912.43,247.65 L 913.85,255.68 L 915.16,264.19 L 916.35,273.23 L 917.43,282.88 L 918.39,293.26 L 919.24,304.49 L 919.97,316.78 L 920.59,330.42 L 921.10,345.86 L 921.49,363.87 L 921.78,386.02 L 921.94,416.51 Z" fill="url(#bg)"/>
<g transform="translate(512 512) scale(1.6) translate(-512 -288.5)"><g transform="rotate(0 512 318)"><ellipse cx="428.5" cy="250.7" rx="90.5" ry="134.6" fill="#FFE8BE" opacity="0.9" transform="rotate(-26 428.5 250.7)"/><ellipse cx="595.5" cy="250.7" rx="90.5" ry="134.6" fill="#FFE8BE" opacity="0.9" transform="rotate(26 595.5 250.7)"/><defs><clipPath id="beeclip512_318"><ellipse cx="512" cy="318" rx="136.9" ry="174.0"/></clipPath></defs><ellipse cx="512" cy="318" rx="136.9" ry="174.0" fill="url(#amber)"/><rect x="365.1" y="247.2" width="293.8" height="39.4" fill="#1C1B18" clip-path="url(#beeclip512_318)"/><rect x="365.1" y="328.4" width="293.8" height="39.4" fill="#1C1B18" clip-path="url(#beeclip512_318)"/><path d="M 512.0,531.4 L 486.5,485.0 L 537.5,485.0 Z" fill="url(#amber)"/><circle cx="512" cy="137.0" r="60.3" fill="url(#amber)"/><path d="M 495.8,102.2 Q 458.6,62.8 461.0,60.5" stroke="#FFC24A" stroke-width="10.4" fill="none" stroke-linecap="round"/><circle cx="461.0" cy="60.5" r="13.9" fill="#FFC24A"/><path d="M 528.2,102.2 Q 565.4,62.8 563.0,60.5" stroke="#FFC24A" stroke-width="10.4" fill="none" stroke-linecap="round"/><circle cx="563.0" cy="60.5" r="13.9" fill="#FFC24A"/></g>
</g></svg>